<?xml version="1.0" encoding="UTF-8"?><svg xmlns="http://www.w3.org/2000/svg" xmlns:xlink="http://www.w3.org/1999/xlink" contentScriptType="text/ecmascript" width="375" zoomAndPan="magnify" contentStyleType="text/css" viewBox="0 0 375 374.999991" height="374.999991" preserveAspectRatio="xMidYMid meet" version="1.0"><rect x="-37.5" width="450" fill="rgb(100%, 100%, 100%)" y="-37.499999" height="449.999989" fill-opacity="1"/><rect x="-37.5" width="450" fill="rgb(100%, 100%, 100%)" y="-37.499999" height="449.999989" fill-opacity="1"/><rect x="-37.5" width="450" fill="rgb(99.21875%, 99.21875%, 99.21875%)" y="-37.499999" height="449.999989" fill-opacity="1"/><path fill="rgb(30.198669%, 74.119568%, 72.158813%)" d="M 374.976562 127.902344 C 374.988281 133.15625 374.714844 138.390625 374.15625 143.613281 C 373.597656 148.835938 372.757812 154.011719 371.640625 159.140625 C 370.519531 164.269531 369.121094 169.324219 367.449219 174.304688 C 365.78125 179.28125 363.84375 184.15625 361.644531 188.921875 C 359.441406 193.691406 356.988281 198.324219 354.28125 202.824219 C 351.578125 207.328125 348.636719 211.667969 345.457031 215.847656 C 342.28125 220.03125 338.886719 224.027344 335.273438 227.839844 C 331.660156 231.652344 327.851562 235.257812 323.847656 238.652344 L 272.714844 282.527344 L 192.785156 350.679688 C 192.402344 351.007812 191.992188 351.300781 191.558594 351.554688 C 191.121094 351.808594 190.667969 352.023438 190.195312 352.199219 C 189.722656 352.375 189.238281 352.503906 188.742188 352.59375 C 188.246094 352.683594 187.75 352.726562 187.246094 352.726562 C 186.742188 352.726562 186.242188 352.683594 185.746094 352.59375 C 185.25 352.503906 184.765625 352.375 184.292969 352.199219 C 183.820312 352.023438 183.367188 351.808594 182.929688 351.554688 C 182.496094 351.300781 182.089844 351.007812 181.707031 350.679688 L 127.847656 303.996094 L 51.152344 238.3125 C 47.148438 234.914062 43.339844 231.308594 39.726562 227.5 C 36.113281 223.6875 32.71875 219.691406 29.542969 215.507812 C 26.363281 211.328125 23.421875 206.984375 20.71875 202.484375 C 18.011719 197.984375 15.558594 193.347656 13.355469 188.582031 C 11.15625 183.8125 9.21875 178.941406 7.550781 173.960938 C 5.878906 168.984375 4.480469 163.929688 3.359375 158.800781 C 2.242188 153.667969 1.402344 148.492188 0.84375 143.273438 C 0.285156 138.050781 0.0117188 132.8125 0.0234375 127.5625 C 0.0273438 125.136719 0.125 122.714844 0.308594 120.296875 C 0.492188 117.878906 0.761719 115.46875 1.125 113.074219 C 1.484375 110.675781 1.933594 108.292969 2.46875 105.925781 C 3.007812 103.5625 3.628906 101.21875 4.335938 98.898438 C 5.046875 96.582031 5.839844 94.289062 6.71875 92.027344 C 7.59375 89.769531 8.554688 87.542969 9.59375 85.351562 C 10.636719 83.160156 11.757812 81.011719 12.957031 78.902344 C 14.15625 76.796875 15.433594 74.734375 16.785156 72.71875 C 18.136719 70.707031 19.558594 68.746094 21.054688 66.835938 C 22.550781 64.925781 24.117188 63.074219 25.75 61.28125 C 27.378906 59.484375 29.078125 57.753906 30.835938 56.085938 C 32.597656 54.414062 34.414062 52.8125 36.292969 51.277344 C 38.171875 49.742188 40.101562 48.277344 42.089844 46.882812 C 44.074219 45.492188 46.109375 44.171875 48.191406 42.929688 C 50.273438 41.6875 52.402344 40.519531 54.570312 39.433594 C 56.738281 38.347656 58.945312 37.339844 61.1875 36.417969 C 63.429688 35.492188 65.703125 34.648438 68.007812 33.894531 C 70.3125 33.136719 72.640625 32.464844 74.996094 31.878906 C 77.351562 31.292969 79.722656 30.792969 82.113281 30.382812 C 84.503906 29.972656 86.90625 29.648438 89.320312 29.414062 C 91.734375 29.179688 94.15625 29.035156 96.582031 28.976562 C 99.007812 28.921875 101.429688 28.953125 103.855469 29.078125 C 106.277344 29.199219 108.691406 29.410156 111.097656 29.710938 C 113.507812 30.011719 115.898438 30.398438 118.277344 30.875 C 120.65625 31.351562 123.015625 31.914062 125.351562 32.5625 C 127.691406 33.210938 130 33.945312 132.285156 34.765625 C 134.566406 35.585938 136.816406 36.488281 139.035156 37.472656 C 141.25 38.460938 143.429688 39.523438 145.566406 40.671875 C 147.703125 41.816406 149.796875 43.039062 151.847656 44.339844 C 153.894531 45.636719 155.890625 47.011719 157.839844 48.457031 C 159.785156 49.90625 161.679688 51.421875 163.511719 53.007812 C 165.347656 54.59375 167.125 56.246094 168.835938 57.960938 L 187.5 76.617188 L 206.164062 57.960938 C 207.878906 56.242188 209.65625 54.589844 211.496094 53 C 213.332031 51.414062 215.226562 49.894531 217.175781 48.445312 C 219.128906 46.996094 221.128906 45.621094 223.179688 44.320312 C 225.230469 43.019531 227.328125 41.796875 229.472656 40.652344 C 231.613281 39.503906 233.792969 38.4375 236.015625 37.453125 C 238.234375 36.46875 240.488281 35.566406 242.777344 34.746094 C 245.0625 33.925781 247.378906 33.191406 249.71875 32.542969 C 252.058594 31.894531 254.421875 31.332031 256.804688 30.859375 C 259.1875 30.382812 261.585938 29.996094 263.996094 29.699219 C 266.40625 29.402344 268.824219 29.191406 271.253906 29.070312 C 273.679688 28.953125 276.105469 28.921875 278.535156 28.980469 C 280.964844 29.039062 283.386719 29.1875 285.804688 29.425781 C 288.222656 29.664062 290.628906 29.992188 293.023438 30.40625 C 295.417969 30.820312 297.792969 31.324219 300.148438 31.914062 C 302.503906 32.503906 304.835938 33.179688 307.144531 33.941406 C 309.449219 34.707031 311.726562 35.550781 313.972656 36.480469 C 316.214844 37.410156 318.421875 38.421875 320.59375 39.515625 C 322.761719 40.609375 324.890625 41.777344 326.972656 43.027344 C 329.054688 44.277344 331.089844 45.601562 333.078125 47 C 335.0625 48.402344 336.992188 49.871094 338.871094 51.414062 C 340.75 52.953125 342.566406 54.5625 344.324219 56.238281 C 346.085938 57.914062 347.777344 59.652344 349.410156 61.453125 C 351.039062 63.253906 352.601562 65.113281 354.09375 67.027344 C 355.589844 68.945312 357.007812 70.914062 358.359375 72.933594 C 359.707031 74.953125 360.976562 77.019531 362.171875 79.136719 C 363.371094 81.25 364.484375 83.40625 365.523438 85.601562 C 366.558594 87.796875 367.515625 90.03125 368.386719 92.296875 C 369.257812 94.5625 370.046875 96.859375 370.75 99.183594 C 371.453125 101.511719 372.066406 103.859375 372.597656 106.226562 C 373.128906 108.597656 373.570312 110.984375 373.921875 113.386719 C 374.277344 115.792969 374.542969 118.203125 374.71875 120.625 C 374.894531 123.050781 374.980469 125.476562 374.976562 127.902344 Z M 374.976562 127.902344 " fill-opacity="1" fill-rule="nonzero"/><path fill="rgb(99.21875%, 84.309387%, 71.759033%)" d="M 272.714844 282.1875 L 192.785156 350.339844 C 192.402344 350.667969 191.992188 350.960938 191.558594 351.214844 C 191.121094 351.46875 190.667969 351.683594 190.195312 351.859375 C 189.722656 352.03125 189.238281 352.164062 188.742188 352.253906 C 188.246094 352.339844 187.75 352.386719 187.246094 352.386719 C 186.742188 352.386719 186.242188 352.339844 185.746094 352.253906 C 185.25 352.164062 184.765625 352.03125 184.292969 351.859375 C 183.820312 351.683594 183.367188 351.46875 182.929688 351.214844 C 182.496094 350.960938 182.089844 350.667969 181.707031 350.339844 L 127.847656 303.996094 L 128.273438 300.671875 L 135.945312 215.90625 C 134.277344 215.933594 132.617188 215.875 130.957031 215.734375 C 129.296875 215.59375 127.648438 215.371094 126.007812 215.066406 C 124.371094 214.761719 122.753906 214.375 121.152344 213.90625 C 119.554688 213.4375 117.984375 212.890625 116.4375 212.265625 C 114.894531 211.640625 113.386719 210.941406 111.910156 210.167969 C 110.4375 209.390625 109.003906 208.542969 107.617188 207.625 C 106.226562 206.703125 104.886719 205.71875 103.597656 204.664062 C 102.304688 203.613281 101.070312 202.496094 99.890625 201.320312 C 98.710938 200.144531 97.59375 198.910156 96.539062 197.625 C 95.484375 196.335938 94.496094 194.996094 93.574219 193.609375 C 92.652344 192.222656 91.800781 190.792969 91.023438 189.320312 C 90.246094 187.847656 89.542969 186.339844 88.914062 184.796875 C 88.285156 183.253906 87.738281 181.683594 87.265625 180.085938 C 86.796875 178.488281 86.40625 176.871094 86.097656 175.234375 C 85.789062 173.597656 85.566406 171.949219 85.421875 170.289062 C 85.277344 168.628906 85.21875 166.96875 85.242188 165.304688 C 85.242188 164.746094 85.269531 164.1875 85.324219 163.632812 C 85.378906 163.078125 85.457031 162.527344 85.566406 161.980469 C 85.675781 161.433594 85.8125 160.890625 85.972656 160.355469 C 86.136719 159.824219 86.324219 159.296875 86.539062 158.78125 C 86.75 158.265625 86.988281 157.761719 87.253906 157.269531 C 87.515625 156.777344 87.800781 156.300781 88.113281 155.835938 C 88.421875 155.375 88.753906 154.925781 89.109375 154.492188 C 89.464844 154.0625 89.835938 153.648438 90.230469 153.253906 C 90.628906 152.859375 91.039062 152.484375 91.472656 152.132812 C 91.902344 151.777344 92.351562 151.445312 92.816406 151.136719 C 93.277344 150.824219 93.757812 150.539062 94.25 150.277344 C 94.742188 150.011719 95.246094 149.773438 95.761719 149.5625 C 96.277344 149.347656 96.800781 149.160156 97.335938 149 C 97.871094 148.835938 98.410156 148.699219 98.957031 148.59375 C 99.507812 148.484375 100.058594 148.402344 100.613281 148.347656 C 101.167969 148.292969 101.726562 148.265625 102.285156 148.265625 C 105.5625 148.25 108.796875 147.871094 111.992188 147.132812 C 115.183594 146.390625 118.257812 145.304688 121.207031 143.875 C 124.15625 142.445312 126.910156 140.707031 129.46875 138.65625 C 132.027344 136.609375 134.328125 134.300781 136.371094 131.738281 L 141.570312 125.261719 C 143.382812 123 145.375 120.90625 147.539062 118.980469 C 149.707031 117.050781 152.019531 115.320312 154.480469 113.78125 C 156.9375 112.246094 159.507812 110.921875 162.191406 109.820312 C 164.871094 108.714844 167.628906 107.84375 170.457031 107.203125 L 170.457031 199.378906 C 170.457031 200.496094 170.511719 201.609375 170.621094 202.71875 C 170.730469 203.832031 170.894531 204.933594 171.113281 206.027344 C 171.328125 207.121094 171.601562 208.203125 171.925781 209.273438 C 172.25 210.339844 172.625 211.390625 173.050781 212.421875 C 173.480469 213.453125 173.957031 214.460938 174.480469 215.445312 C 175.007812 216.429688 175.582031 217.382812 176.203125 218.3125 C 176.820312 219.238281 177.484375 220.136719 178.195312 221 C 178.902344 221.859375 179.652344 222.6875 180.441406 223.476562 C 181.230469 224.265625 182.054688 225.015625 182.917969 225.722656 C 183.78125 226.429688 184.675781 227.09375 185.605469 227.714844 C 186.535156 228.335938 187.492188 228.90625 188.476562 229.433594 C 189.460938 229.960938 190.46875 230.4375 191.5 230.863281 C 192.53125 231.289062 193.582031 231.664062 194.648438 231.988281 C 195.714844 232.3125 196.796875 232.585938 197.894531 232.800781 C 198.988281 233.019531 200.089844 233.183594 201.203125 233.292969 C 202.3125 233.402344 203.425781 233.457031 204.542969 233.457031 C 205.660156 233.457031 206.773438 233.402344 207.882812 233.292969 C 208.996094 233.183594 210.097656 233.019531 211.191406 232.800781 C 212.289062 232.585938 213.371094 232.3125 214.4375 231.988281 C 215.507812 231.664062 216.554688 231.289062 217.585938 230.863281 C 218.617188 230.4375 219.628906 229.960938 220.613281 229.433594 C 221.597656 228.90625 222.550781 228.335938 223.480469 227.714844 C 224.410156 227.09375 225.304688 226.429688 226.167969 225.722656 C 227.03125 225.015625 227.855469 224.265625 228.644531 223.476562 C 229.433594 222.6875 230.183594 221.859375 230.890625 221 C 231.601562 220.136719 232.265625 219.238281 232.886719 218.3125 C 233.503906 217.382812 234.078125 216.429688 234.605469 215.445312 C 235.132812 214.460938 235.609375 213.453125 236.035156 212.421875 C 236.460938 211.390625 236.839844 210.339844 237.160156 209.273438 C 237.484375 208.203125 237.757812 207.121094 237.976562 206.027344 C 238.191406 204.933594 238.355469 203.832031 238.464844 202.71875 C 238.574219 201.609375 238.628906 200.496094 238.628906 199.378906 L 238.628906 157.804688 C 238.664062 167.085938 239.230469 176.335938 240.332031 185.550781 C 241.429688 194.765625 243.054688 203.886719 245.207031 212.914062 C 247.359375 221.941406 250.023438 230.8125 253.199219 239.535156 C 256.371094 248.253906 260.039062 256.765625 264.195312 265.0625 L 267.773438 272.21875 Z M 272.714844 282.1875 " fill-opacity="1" fill-rule="nonzero"/><path fill="rgb(92.939758%, 63.529968%, 48.629761%)" d="M 238.628906 157.804688 L 238.628906 199.378906 C 238.628906 200.496094 238.574219 201.609375 238.464844 202.71875 C 238.355469 203.832031 238.191406 204.933594 237.976562 206.027344 C 237.757812 207.121094 237.484375 208.203125 237.160156 209.273438 C 236.839844 210.339844 236.460938 211.390625 236.035156 212.421875 C 235.609375 213.453125 235.132812 214.460938 234.605469 215.445312 C 234.078125 216.429688 233.503906 217.382812 232.886719 218.3125 C 232.265625 219.238281 231.601562 220.136719 230.890625 221 C 230.183594 221.859375 229.433594 222.6875 228.644531 223.476562 C 227.855469 224.265625 227.03125 225.015625 226.167969 225.722656 C 225.304688 226.429688 224.410156 227.09375 223.480469 227.714844 C 222.550781 228.335938 221.597656 228.90625 220.613281 229.433594 C 219.628906 229.960938 218.617188 230.4375 217.585938 230.863281 C 216.554688 231.289062 215.507812 231.664062 214.4375 231.988281 C 213.371094 232.3125 212.289062 232.585938 211.191406 232.800781 C 210.097656 233.019531 208.996094 233.183594 207.882812 233.292969 C 206.773438 233.402344 205.660156 233.457031 204.542969 233.457031 C 203.425781 233.457031 202.3125 233.402344 201.203125 233.292969 C 200.089844 233.183594 198.988281 233.019531 197.894531 232.800781 C 196.796875 232.585938 195.714844 232.3125 194.648438 231.988281 C 193.582031 231.664062 192.53125 231.289062 191.5 230.863281 C 190.46875 230.4375 189.460938 229.960938 188.476562 229.433594 C 187.492188 228.90625 186.535156 228.335938 185.605469 227.714844 C 184.675781 227.09375 183.78125 226.429688 182.917969 225.722656 C 182.054688 225.015625 181.230469 224.265625 180.441406 223.476562 C 179.652344 222.6875 178.902344 221.859375 178.195312 221 C 177.484375 220.136719 176.820312 219.238281 176.203125 218.3125 C 175.582031 217.382812 175.007812 216.429688 174.480469 215.445312 C 173.957031 214.460938 173.480469 213.453125 173.050781 212.421875 C 172.625 211.390625 172.25 210.339844 171.925781 209.273438 C 171.601562 208.203125 171.328125 207.121094 171.113281 206.027344 C 170.894531 204.933594 170.730469 203.832031 170.621094 202.71875 C 170.511719 201.609375 170.457031 200.496094 170.457031 199.378906 L 170.457031 107.203125 C 174.539062 106.167969 178.6875 105.660156 182.898438 105.667969 L 187.5 105.667969 C 190.636719 105.703125 193.742188 106.027344 196.816406 106.632812 C 199.890625 107.238281 202.886719 108.121094 205.800781 109.28125 C 208.714844 110.4375 211.496094 111.851562 214.148438 113.519531 C 216.804688 115.191406 219.28125 117.089844 221.585938 119.214844 L 223.375 120.832031 C 225.800781 123.261719 227.96875 125.902344 229.871094 128.757812 C 231.773438 131.613281 233.382812 134.625 234.691406 137.800781 C 236 140.972656 236.984375 144.242188 237.648438 147.609375 C 238.3125 150.976562 238.636719 154.375 238.628906 157.804688 Z M 238.628906 157.804688 " fill-opacity="1" fill-rule="nonzero"/></svg>